<svg width="333" height="74" id="logo_dc" xmlns="http://www.w3.org/2000/svg" viewBox="0 0 333 74">
<path id="cercle" fill-rule="evenodd" clip-rule="evenodd" d="M34,3c18.2,0,33,14.8,33,33S52.2,69,34,69C15.8,69,1,54.2,1,36S15.8,3,34,3z" fill="#F11B5D"/>
<path id="d" fill-rule="evenodd" clip-rule="evenodd" d="M35.8,37.8c0-2-1.6-3.6-3.6-3.6c-2,0-3.6,1.6-3.6,3.6c0,2,1.6,3.6,3.6,3.6c1,0,1.9-0.4,2.5-1l7.6,7.6
	c-2.6,2.6-6.2,4.2-10.1,4.2c-7.9,0-14.3-6.4-14.3-14.3c0-7.9,6.4-14.3,14.3-14.3c5.1,0,9.6,2.7,12.1,6.7c-1.5-3.9-4.6-6.9-8.5-8.3
	v-5.5h10.7v21.4H35.8z" fill="#FFFFFF"/>
<path id="nom" fill-rule="evenodd" clip-rule="evenodd" d="M101.5,10.5c0-0.1,0-0.2-0.1-0.2c-0.1-0.1-0.1-0.1-0.2-0.2c-0.1,0-0.2-0.1-0.4-0.1c-0.2,0-0.4,0-0.7,0
	c-0.3,0-0.5,0-0.7,0c-0.2,0-0.3,0.1-0.4,0.1c-0.1,0-0.2,0.1-0.2,0.2c0,0.1-0.1,0.2-0.1,0.2v8.9c-0.7-0.8-1.5-1.3-2.3-1.7
	c-0.8-0.4-1.6-0.6-2.5-0.6c-1.1,0-2.1,0.2-2.9,0.6c-0.9,0.4-1.6,1-2.1,1.7c-0.6,0.8-1,1.7-1.3,2.7c-0.3,1.1-0.4,2.3-0.4,3.6
	c0,1.1,0.1,2.2,0.4,3.2c0.2,1,0.6,1.9,1.1,2.6c0.5,0.7,1.2,1.3,2,1.8c0.8,0.4,1.8,0.7,3,0.7c1.1,0,2-0.2,2.9-0.7
	c0.9-0.5,1.8-1.2,2.6-2.1v2c0,0.1,0,0.2,0.1,0.2c0,0.1,0.1,0.1,0.2,0.2c0.1,0,0.2,0.1,0.4,0.1c0.2,0,0.4,0,0.6,0c0.2,0,0.4,0,0.6,0
	c0.2,0,0.3-0.1,0.4-0.1c0.1,0,0.2-0.1,0.2-0.2c0-0.1,0.1-0.1,0.1-0.2V10.5z M98.6,28.7c-0.5,0.6-0.9,1-1.3,1.4
	c-0.4,0.4-0.8,0.7-1.2,0.9c-0.4,0.2-0.7,0.4-1.1,0.5c-0.4,0.1-0.7,0.2-1.1,0.2c-0.8,0-1.4-0.2-1.9-0.5c-0.5-0.3-0.9-0.8-1.2-1.4
	c-0.3-0.6-0.5-1.2-0.6-2C90.1,27,90,26.3,90,25.5c0-0.7,0.1-1.4,0.2-2.2c0.1-0.7,0.4-1.3,0.7-1.9c0.3-0.6,0.7-1,1.3-1.4
	c0.5-0.3,1.1-0.5,1.9-0.5c0.8,0,1.6,0.2,2.3,0.7c0.7,0.5,1.5,1.2,2.3,2.2V28.7z M119.8,18.4c0.1-0.2,0.1-0.4,0.1-0.5
	c0-0.1-0.1-0.2-0.1-0.3c-0.1-0.1-0.3-0.1-0.5-0.2c-0.2,0-0.5,0-0.8,0c-0.4,0-0.7,0-0.9,0c-0.2,0-0.4,0.1-0.4,0.1
	c-0.1,0.1-0.2,0.2-0.3,0.4l-4.4,12.4h-0.1L108,18.1c-0.1-0.1-0.1-0.3-0.2-0.4c-0.1-0.1-0.1-0.1-0.3-0.2c-0.1,0-0.3-0.1-0.5-0.1
	c-0.2,0-0.5,0-0.8,0s-0.6,0-0.8,0c-0.2,0-0.4,0.1-0.5,0.2c-0.1,0.1-0.1,0.2-0.1,0.3c0,0.1,0,0.3,0.1,0.6l5.6,14.7
	c0,0.1,0.1,0.2,0.2,0.3c0.1,0.1,0.2,0.2,0.3,0.2l-2.2,5.4c-0.1,0.2-0.1,0.3-0.1,0.4c0,0.1,0.1,0.2,0.2,0.3c0.1,0.1,0.2,0.1,0.4,0.1
	c0.2,0,0.4,0,0.7,0c0.6,0,1,0,1.3-0.1c0.3-0.1,0.5-0.2,0.5-0.4l2.1-5.7L119.8,18.4z M136.5,21.1c0.2,0.8,0.3,1.7,0.3,2.8v9.4
	c0,0.1,0,0.2-0.1,0.2c0,0.1-0.1,0.1-0.2,0.2c-0.1,0-0.3,0.1-0.4,0.1c-0.2,0-0.4,0-0.7,0c-0.3,0-0.5,0-0.7,0c-0.2,0-0.3-0.1-0.4-0.1
	c-0.1,0-0.2-0.1-0.2-0.2c0-0.1-0.1-0.1-0.1-0.2v-9c0-0.9-0.1-1.6-0.2-2.1c-0.1-0.5-0.3-1-0.6-1.4c-0.3-0.4-0.6-0.7-1-0.9
	c-0.4-0.2-0.9-0.3-1.5-0.3c-0.7,0-1.5,0.3-2.2,0.8c-0.7,0.5-1.5,1.2-2.3,2.2v10.8c0,0.1,0,0.2-0.1,0.2c0,0.1-0.1,0.1-0.2,0.2
	c-0.1,0-0.3,0.1-0.4,0.1c-0.2,0-0.4,0-0.7,0c-0.3,0-0.5,0-0.7,0c-0.2,0-0.3-0.1-0.4-0.1c-0.1,0-0.2-0.1-0.2-0.2
	c0-0.1-0.1-0.1-0.1-0.2V17.9c0-0.1,0-0.2,0.1-0.2c0-0.1,0.1-0.1,0.2-0.2c0.1-0.1,0.2-0.1,0.4-0.1c0.2,0,0.4,0,0.6,0
	c0.3,0,0.5,0,0.6,0c0.2,0,0.3,0.1,0.4,0.1c0.1,0.1,0.2,0.1,0.2,0.2c0,0.1,0.1,0.1,0.1,0.2v2c0.9-1,1.8-1.7,2.7-2.1
	c0.9-0.5,1.8-0.7,2.7-0.7c1.1,0,1.9,0.2,2.7,0.5c0.7,0.3,1.3,0.8,1.7,1.4C136,19.7,136.3,20.3,136.5,21.1z M154,23
	c0-1-0.1-1.8-0.3-2.5c-0.2-0.7-0.6-1.3-1.1-1.8c-0.5-0.5-1.1-0.9-1.9-1.1c-0.8-0.2-1.8-0.4-2.9-0.4c-0.6,0-1.2,0.1-1.8,0.2
	c-0.6,0.1-1.1,0.2-1.7,0.4c-0.5,0.2-0.9,0.3-1.3,0.5c-0.4,0.2-0.7,0.4-0.8,0.5c-0.2,0.1-0.3,0.3-0.3,0.5c0,0.2-0.1,0.4-0.1,0.7
	c0,0.2,0,0.3,0,0.5c0,0.1,0.1,0.3,0.1,0.4c0.1,0.1,0.1,0.2,0.2,0.2c0.1,0,0.2,0.1,0.2,0.1c0.1,0,0.4-0.1,0.6-0.2
	c0.3-0.2,0.6-0.3,1.1-0.5c0.4-0.2,0.9-0.4,1.5-0.5c0.6-0.2,1.2-0.2,1.9-0.2c0.7,0,1.2,0.1,1.7,0.2c0.5,0.2,0.8,0.4,1.1,0.7
	c0.3,0.3,0.5,0.7,0.6,1.1c0.1,0.5,0.2,1,0.2,1.6v1.2H149c-1.2,0-2.3,0.1-3.3,0.3c-1,0.2-1.8,0.5-2.5,0.9c-0.7,0.4-1.2,1-1.6,1.6
	c-0.4,0.6-0.5,1.4-0.5,2.3c0,0.7,0.1,1.4,0.4,2c0.3,0.6,0.6,1.1,1.1,1.5c0.5,0.4,1,0.7,1.7,0.9c0.7,0.2,1.4,0.3,2.3,0.3
	c0.9,0,1.8-0.2,2.7-0.6c0.8-0.4,1.6-1,2.3-1.7v1.5c0,0.1,0,0.2,0.1,0.3c0.1,0.1,0.2,0.1,0.4,0.2c0.2,0,0.4,0.1,0.7,0.1
	c0.3,0,0.6,0,0.7-0.1c0.2,0,0.3-0.1,0.4-0.2c0.1-0.1,0.1-0.2,0.1-0.3V23z M151.1,29.6c-0.7,0.8-1.4,1.4-2,1.7
	c-0.6,0.4-1.4,0.6-2.1,0.6c-0.9,0-1.7-0.2-2.2-0.7c-0.5-0.5-0.8-1.1-0.8-1.9c0-0.5,0.1-0.9,0.3-1.2c0.2-0.4,0.5-0.7,0.9-0.9
	c0.4-0.3,0.9-0.4,1.5-0.6c0.6-0.1,1.3-0.2,2.1-0.2h2.5V29.6z M182.8,23.6c0-0.9-0.1-1.7-0.3-2.5c-0.2-0.8-0.5-1.5-0.9-2
	c-0.4-0.6-1-1-1.7-1.4c-0.7-0.3-1.6-0.5-2.6-0.5c-0.4,0-0.8,0.1-1.3,0.2c-0.4,0.1-0.8,0.3-1.3,0.5c-0.4,0.2-0.9,0.6-1.4,0.9
	c-0.5,0.4-1,0.9-1.5,1.4c-0.2-0.5-0.4-0.9-0.7-1.2c-0.3-0.4-0.6-0.7-1-1c-0.4-0.3-0.9-0.5-1.4-0.6c-0.5-0.1-1.1-0.2-1.8-0.2
	c-0.9,0-1.7,0.2-2.5,0.7c-0.8,0.4-1.7,1.2-2.6,2.1v-2c0-0.1,0-0.2-0.1-0.2c0-0.1-0.1-0.1-0.2-0.2c-0.1-0.1-0.2-0.1-0.4-0.1
	c-0.2,0-0.4,0-0.6,0c-0.3,0-0.5,0-0.7,0c-0.2,0-0.3,0.1-0.4,0.1c-0.1,0.1-0.2,0.1-0.2,0.2c0,0.1-0.1,0.1-0.1,0.2v15.4
	c0,0.1,0,0.2,0.1,0.2c0,0.1,0.1,0.1,0.2,0.2c0.1,0,0.3,0.1,0.4,0.1c0.2,0,0.4,0,0.7,0c0.3,0,0.5,0,0.7,0c0.2,0,0.3-0.1,0.4-0.1
	c0.1,0,0.2-0.1,0.2-0.2c0-0.1,0.1-0.1,0.1-0.2V22.6c0.8-1,1.5-1.7,2.2-2.2c0.7-0.5,1.4-0.8,2-0.8c0.5,0,1,0.1,1.4,0.3
	c0.4,0.2,0.7,0.5,1,0.9c0.3,0.4,0.4,0.9,0.6,1.4c0.1,0.5,0.2,1.1,0.2,1.8v9.4c0,0.1,0,0.2,0.1,0.2c0,0.1,0.1,0.1,0.2,0.2
	c0.1,0,0.3,0.1,0.5,0.1c0.2,0,0.4,0,0.7,0c0.3,0,0.5,0,0.7,0c0.2,0,0.3-0.1,0.4-0.1c0.1,0,0.2-0.1,0.2-0.2c0-0.1,0.1-0.1,0.1-0.2
	V22.6c0.8-1,1.5-1.7,2.2-2.2c0.7-0.5,1.3-0.8,2-0.8c0.5,0,1,0.1,1.4,0.3c0.4,0.2,0.7,0.5,1,0.9c0.3,0.4,0.4,0.9,0.6,1.4
	c0.1,0.5,0.2,1.1,0.2,1.8v9.4c0,0.1,0,0.2,0.1,0.2c0,0.1,0.1,0.1,0.2,0.2c0.1,0,0.3,0.1,0.4,0.1c0.2,0,0.4,0,0.7,0
	c0.3,0,0.5,0,0.7,0c0.2,0,0.3-0.1,0.4-0.1c0.1,0,0.2-0.1,0.2-0.2c0-0.1,0.1-0.1,0.1-0.2V23.6z M190.9,17.7c0,0.1,0.1,0.1,0.1,0.2
	v15.4c0,0.1,0,0.2-0.1,0.2c0,0.1-0.1,0.1-0.2,0.2c-0.1,0-0.3,0.1-0.4,0.1c-0.2,0-0.4,0-0.7,0c-0.3,0-0.5,0-0.7,0
	c-0.2,0-0.3-0.1-0.5-0.1c-0.1,0-0.2-0.1-0.2-0.2c0-0.1-0.1-0.1-0.1-0.2V17.9c0-0.1,0-0.2,0.1-0.2c0-0.1,0.1-0.1,0.2-0.2
	c0.1,0,0.3-0.1,0.5-0.1c0.2,0,0.4,0,0.7,0c0.3,0,0.5,0,0.7,0c0.2,0,0.3,0.1,0.4,0.1C190.8,17.6,190.9,17.6,190.9,17.7z M189.5,11.1
	c0.7,0,1.1,0.1,1.4,0.4c0.3,0.2,0.4,0.7,0.4,1.3c0,0.7-0.1,1.1-0.4,1.4c-0.3,0.2-0.7,0.4-1.4,0.4c-0.7,0-1.1-0.1-1.4-0.4
	c-0.3-0.2-0.4-0.7-0.4-1.3c0-0.7,0.1-1.1,0.4-1.4C188.4,11.2,188.9,11.1,189.5,11.1z M207.6,30c0,0.1,0.1,0.2,0.1,0.4
	c0,0.2,0,0.4,0,0.6c0,0.2,0,0.4,0,0.5c0,0.1,0,0.3-0.1,0.4c0,0.1-0.1,0.2-0.1,0.3c0,0.1-0.1,0.2-0.3,0.3c-0.1,0.1-0.4,0.3-0.7,0.5
	c-0.4,0.2-0.7,0.4-1.2,0.6c-0.4,0.2-0.9,0.3-1.4,0.4c-0.5,0.1-1,0.2-1.6,0.2c-1.1,0-2.1-0.2-3-0.5c-0.9-0.4-1.6-0.9-2.2-1.6
	c-0.6-0.7-1-1.6-1.4-2.6c-0.3-1-0.5-2.2-0.5-3.5c0-1.5,0.2-2.8,0.6-3.9c0.4-1.1,0.9-2,1.6-2.7c0.7-0.7,1.4-1.2,2.3-1.5
	c0.9-0.3,1.9-0.5,2.9-0.5c0.5,0,1,0,1.5,0.1c0.5,0.1,0.9,0.2,1.3,0.4c0.4,0.1,0.8,0.3,1.1,0.5c0.3,0.2,0.5,0.4,0.7,0.5
	c0.1,0.1,0.2,0.2,0.3,0.3c0.1,0.1,0.1,0.2,0.1,0.3c0,0.1,0.1,0.2,0.1,0.4c0,0.1,0,0.3,0,0.5c0,0.4-0.1,0.8-0.2,0.9
	c-0.1,0.2-0.2,0.3-0.4,0.3c-0.2,0-0.4-0.1-0.6-0.3c-0.2-0.2-0.5-0.4-0.9-0.6c-0.4-0.2-0.8-0.4-1.3-0.6c-0.5-0.2-1.1-0.3-1.8-0.3
	c-1.4,0-2.5,0.5-3.2,1.6c-0.7,1-1.1,2.6-1.1,4.5c0,1,0.1,1.9,0.3,2.6c0.2,0.7,0.5,1.4,0.9,1.9c0.4,0.5,0.8,0.9,1.4,1.1
	c0.5,0.2,1.2,0.4,1.9,0.4c0.7,0,1.3-0.1,1.8-0.3c0.5-0.2,0.9-0.4,1.3-0.7c0.4-0.2,0.7-0.5,0.9-0.7c0.3-0.2,0.4-0.3,0.6-0.3
	c0.1,0,0.1,0,0.2,0.1C207.5,29.8,207.6,29.9,207.6,30z M231,30.4c0-0.2,0-0.3-0.1-0.4c0-0.1-0.1-0.2-0.1-0.2c-0.1,0-0.1-0.1-0.2-0.1
	c-0.1,0-0.3,0.1-0.6,0.3c-0.3,0.2-0.6,0.4-0.9,0.7c-0.4,0.2-0.8,0.5-1.3,0.7c-0.5,0.2-1.1,0.3-1.8,0.3c-0.7,0-1.3-0.1-1.9-0.4
	c-0.5-0.2-1-0.6-1.4-1.1c-0.4-0.5-0.7-1.1-0.9-1.9c-0.2-0.7-0.3-1.6-0.3-2.6c0-2,0.4-3.5,1.1-4.5c0.7-1,1.8-1.6,3.2-1.6
	c0.7,0,1.3,0.1,1.8,0.3c0.5,0.2,0.9,0.4,1.3,0.6c0.4,0.2,0.6,0.4,0.9,0.6c0.2,0.2,0.4,0.3,0.6,0.3c0.2,0,0.3-0.1,0.4-0.3
	c0.1-0.2,0.2-0.5,0.2-0.9c0-0.2,0-0.4,0-0.5c0-0.1,0-0.3-0.1-0.4c0-0.1-0.1-0.2-0.1-0.3c-0.1-0.1-0.2-0.2-0.3-0.3
	c-0.1-0.1-0.4-0.3-0.7-0.5c-0.3-0.2-0.7-0.4-1.1-0.5c-0.4-0.1-0.8-0.3-1.3-0.4c-0.5-0.1-1-0.1-1.5-0.1c-1,0-2,0.2-2.9,0.5
	c-0.9,0.3-1.7,0.9-2.3,1.5c-0.7,0.7-1.2,1.6-1.6,2.7c-0.4,1.1-0.6,2.4-0.6,3.9c0,1.3,0.2,2.5,0.5,3.5c0.3,1,0.8,1.9,1.4,2.6
	c0.6,0.7,1.3,1.2,2.2,1.6c0.9,0.4,1.9,0.5,3,0.5c0.6,0,1.1-0.1,1.6-0.2c0.5-0.1,1-0.2,1.4-0.4c0.4-0.2,0.8-0.4,1.2-0.6
	c0.4-0.2,0.6-0.4,0.7-0.5c0.1-0.1,0.2-0.3,0.3-0.3c0-0.1,0.1-0.2,0.1-0.3c0-0.1,0.1-0.2,0.1-0.4c0-0.1,0-0.3,0-0.5
	C231.1,30.7,231.1,30.6,231,30.4z M244.1,18c0,0.1,0,0.2,0,0.4c0,0.2,0,0.4,0,0.6c0,0.3,0,0.5,0,0.6c0,0.2,0,0.3-0.1,0.4
	c0,0.1-0.1,0.2-0.1,0.2c-0.1,0.1-0.1,0.1-0.2,0.1c-0.1,0-0.2,0-0.3-0.1c-0.1-0.1-0.3-0.1-0.5-0.2c-0.2-0.1-0.4-0.1-0.6-0.1
	c-0.2,0-0.4-0.1-0.7-0.1c-0.3,0-0.6,0.1-0.9,0.2c-0.3,0.1-0.6,0.3-0.9,0.6c-0.3,0.3-0.6,0.6-1,1c-0.3,0.4-0.7,1-1.1,1.6v10.1
	c0,0.1,0,0.2-0.1,0.2c0,0.1-0.1,0.1-0.2,0.2c-0.1,0-0.3,0.1-0.4,0.1c-0.2,0-0.4,0-0.7,0c-0.3,0-0.5,0-0.7,0c-0.2,0-0.3-0.1-0.4-0.1
	c-0.1,0-0.2-0.1-0.2-0.2c0-0.1-0.1-0.1-0.1-0.2V17.9c0-0.1,0-0.2,0.1-0.2c0-0.1,0.1-0.1,0.2-0.2c0.1-0.1,0.2-0.1,0.4-0.1
	c0.2,0,0.4,0,0.6,0c0.3,0,0.5,0,0.6,0c0.2,0,0.3,0.1,0.4,0.1c0.1,0.1,0.2,0.1,0.2,0.2c0,0.1,0.1,0.1,0.1,0.2v2.2
	c0.4-0.6,0.8-1.1,1.2-1.5c0.4-0.4,0.7-0.7,1.1-0.9c0.3-0.2,0.7-0.4,1-0.5c0.3-0.1,0.7-0.1,1-0.1c0.2,0,0.3,0,0.5,0
	c0.2,0,0.4,0,0.6,0.1c0.2,0,0.4,0.1,0.6,0.2c0.2,0.1,0.3,0.1,0.4,0.2c0.1,0.1,0.1,0.1,0.1,0.2C244.1,17.8,244.1,17.9,244.1,18z
	 M260.5,24.4c0-1-0.1-1.9-0.4-2.8c-0.3-0.9-0.7-1.7-1.2-2.3c-0.6-0.7-1.3-1.2-2.2-1.6c-0.9-0.4-1.9-0.6-3.2-0.6
	c-1.2,0-2.2,0.2-3.1,0.6c-0.9,0.4-1.7,1-2.4,1.7c-0.7,0.7-1.2,1.6-1.5,2.7c-0.4,1.1-0.5,2.2-0.5,3.6c0,1.4,0.2,2.6,0.5,3.7
	c0.3,1,0.8,1.9,1.5,2.6c0.7,0.7,1.5,1.2,2.5,1.6c1,0.4,2.1,0.5,3.4,0.5c0.8,0,1.5-0.1,2.1-0.2c0.7-0.1,1.2-0.2,1.7-0.4
	c0.5-0.1,0.9-0.3,1.2-0.4c0.3-0.1,0.5-0.2,0.6-0.3c0.1-0.1,0.1-0.1,0.2-0.2c0-0.1,0.1-0.1,0.1-0.2c0-0.1,0-0.2,0-0.3
	c0-0.1,0-0.2,0-0.4c0-0.2,0-0.4,0-0.5c0-0.1,0-0.3-0.1-0.3c0-0.1-0.1-0.1-0.1-0.2c-0.1,0-0.1-0.1-0.2-0.1c-0.1,0-0.4,0.1-0.6,0.2
	c-0.3,0.1-0.6,0.3-1.1,0.4c-0.4,0.1-0.9,0.3-1.5,0.4c-0.6,0.1-1.3,0.2-2,0.2c-1,0-1.8-0.1-2.4-0.4c-0.7-0.3-1.2-0.6-1.6-1.1
	c-0.4-0.5-0.7-1.1-0.9-1.8c-0.2-0.7-0.3-1.5-0.3-2.3h10.4c0.3,0,0.6-0.1,0.8-0.3c0.2-0.2,0.3-0.5,0.3-0.9V24.4z M248.9,24.1
	c0-0.6,0.1-1.2,0.3-1.8c0.2-0.6,0.5-1.1,0.8-1.5c0.4-0.4,0.8-0.8,1.4-1c0.5-0.3,1.2-0.4,1.9-0.4c1.4,0,2.5,0.4,3.2,1.3
	c0.7,0.8,1.1,2,1,3.5H248.9z M276.8,23c0-1-0.1-1.8-0.3-2.5c-0.2-0.7-0.6-1.3-1.1-1.8c-0.5-0.5-1.1-0.9-1.9-1.1
	c-0.8-0.2-1.8-0.4-2.9-0.4c-0.6,0-1.2,0.1-1.8,0.2c-0.6,0.1-1.1,0.2-1.7,0.4c-0.5,0.2-0.9,0.3-1.3,0.5c-0.4,0.2-0.7,0.4-0.8,0.5
	c-0.2,0.1-0.3,0.3-0.3,0.5c0,0.2-0.1,0.4-0.1,0.7c0,0.2,0,0.3,0,0.5c0,0.1,0.1,0.3,0.1,0.4c0.1,0.1,0.1,0.2,0.2,0.2
	c0.1,0,0.1,0.1,0.2,0.1c0.1,0,0.4-0.1,0.6-0.2c0.3-0.2,0.6-0.3,1.1-0.5c0.4-0.2,0.9-0.4,1.5-0.5c0.6-0.2,1.2-0.2,1.9-0.2
	c0.7,0,1.2,0.1,1.7,0.2c0.5,0.2,0.8,0.4,1.1,0.7c0.3,0.3,0.5,0.7,0.6,1.1c0.1,0.5,0.2,1,0.2,1.6v1.2h-2.2c-1.2,0-2.3,0.1-3.3,0.3
	c-1,0.2-1.8,0.5-2.5,0.9c-0.7,0.4-1.2,1-1.6,1.6c-0.4,0.6-0.5,1.4-0.5,2.3c0,0.7,0.1,1.4,0.4,2c0.3,0.6,0.6,1.1,1.1,1.5
	c0.5,0.4,1,0.7,1.7,0.9c0.7,0.2,1.4,0.3,2.3,0.3c1,0,1.8-0.2,2.7-0.6c0.8-0.4,1.6-1,2.3-1.7v1.5c0,0.1,0,0.2,0.1,0.3
	c0.1,0.1,0.2,0.1,0.4,0.2c0.2,0,0.4,0.1,0.7,0.1c0.3,0,0.6,0,0.7-0.1c0.2,0,0.3-0.1,0.4-0.2c0.1-0.1,0.1-0.2,0.1-0.3V23z
	 M273.9,29.6c-0.7,0.8-1.4,1.4-2,1.7c-0.7,0.4-1.4,0.6-2.1,0.6c-0.9,0-1.7-0.2-2.2-0.7c-0.5-0.5-0.8-1.1-0.8-1.9
	c0-0.5,0.1-0.9,0.3-1.2c0.2-0.4,0.5-0.7,0.9-0.9c0.4-0.3,0.9-0.4,1.5-0.6c0.6-0.1,1.3-0.2,2.1-0.2h2.5V29.6z M290,31.7
	c0-0.1-0.1-0.2-0.1-0.3c0-0.1-0.1-0.1-0.1-0.2c-0.1,0-0.1,0-0.2,0c-0.1,0-0.2,0-0.3,0.1c-0.1,0.1-0.3,0.1-0.4,0.2
	c-0.2,0.1-0.4,0.1-0.6,0.2c-0.2,0-0.5,0.1-0.7,0.1c-0.8,0-1.4-0.3-1.7-0.8c-0.3-0.5-0.5-1.3-0.5-2.4v-8.6h4.1c0.2,0,0.3-0.1,0.4-0.3
	c0.1-0.2,0.2-0.5,0.2-0.9c0-0.2,0-0.4,0-0.5c0-0.1-0.1-0.3-0.1-0.4c-0.1-0.1-0.1-0.2-0.2-0.2c-0.1,0-0.2-0.1-0.2-0.1h-4.1v-3.7
	c0-0.1,0-0.2-0.1-0.2c0-0.1-0.1-0.1-0.2-0.2c-0.1-0.1-0.3-0.1-0.4-0.1c-0.2,0-0.4,0-0.7,0c-0.3,0-0.5,0-0.7,0
	c-0.2,0-0.3,0.1-0.4,0.1c-0.1,0-0.2,0.1-0.2,0.2c0,0.1-0.1,0.1-0.1,0.2v3.7h-2.2c-0.1,0-0.2,0-0.3,0.1c-0.1,0-0.1,0.1-0.2,0.2
	c0,0.1-0.1,0.2-0.1,0.4c0,0.1,0,0.3,0,0.5c0,0.4,0.1,0.7,0.2,0.9c0.1,0.2,0.2,0.3,0.4,0.3h2.2v9c0,0.9,0.1,1.7,0.3,2.3
	c0.2,0.7,0.4,1.2,0.8,1.6c0.4,0.4,0.9,0.7,1.4,1c0.6,0.2,1.3,0.3,2.1,0.3c0.3,0,0.5,0,0.8-0.1c0.3,0,0.5-0.1,0.8-0.1
	c0.2-0.1,0.5-0.1,0.6-0.2c0.2-0.1,0.3-0.2,0.4-0.3c0.1-0.1,0.2-0.2,0.2-0.4c0-0.2,0.1-0.5,0.1-0.8C290,32,290,31.8,290,31.7z
	 M296.7,17.7c0,0.1,0.1,0.1,0.1,0.2v15.4c0,0.1,0,0.2-0.1,0.2c0,0.1-0.1,0.1-0.2,0.2c-0.1,0-0.3,0.1-0.4,0.1c-0.2,0-0.4,0-0.7,0
	c-0.3,0-0.5,0-0.7,0c-0.2,0-0.3-0.1-0.4-0.1c-0.1,0-0.2-0.1-0.2-0.2c0-0.1-0.1-0.1-0.1-0.2V17.9c0-0.1,0-0.2,0.1-0.2
	c0-0.1,0.1-0.1,0.2-0.2c0.1,0,0.3-0.1,0.4-0.1c0.2,0,0.4,0,0.7,0c0.3,0,0.5,0,0.7,0c0.2,0,0.3,0.1,0.4,0.1
	C296.5,17.6,296.6,17.6,296.7,17.7z M295.3,11.1c0.7,0,1.1,0.1,1.4,0.4c0.3,0.2,0.4,0.7,0.4,1.3c0,0.7-0.1,1.1-0.4,1.4
	c-0.3,0.2-0.7,0.4-1.4,0.4c-0.7,0-1.1-0.1-1.4-0.4c-0.3-0.2-0.4-0.7-0.4-1.3c0-0.7,0.1-1.1,0.4-1.4
	C294.1,11.2,294.6,11.1,295.3,11.1z M314.8,17.5c0.1,0,0.2,0.1,0.2,0.2c0,0.1,0.1,0.1,0.1,0.2c0,0,0,0.1,0,0.1c0,0,0,0,0,0
	c0,0,0,0.1,0,0.1c0,0,0,0,0,0c0,0,0,0.1,0,0.1c0,0.1,0,0.1-0.1,0.2l-5.4,14.6c0,0.1-0.1,0.2-0.2,0.3c-0.1,0.1-0.2,0.1-0.3,0.2
	c-0.2,0-0.3,0.1-0.6,0.1c-0.2,0-0.5,0-0.9,0c-0.3,0-0.6,0-0.9,0c-0.2,0-0.4-0.1-0.6-0.1c-0.1,0-0.3-0.1-0.3-0.2
	c-0.1-0.1-0.1-0.2-0.2-0.3l-5.4-14.6c0-0.1-0.1-0.3-0.1-0.4c0-0.1,0-0.2-0.1-0.2c0-0.1,0-0.1,0-0.1c0-0.1,0-0.2,0.1-0.2
	c0-0.1,0.1-0.1,0.2-0.2c0.1,0,0.3-0.1,0.4-0.1c0.2,0,0.4,0,0.7,0c0.3,0,0.6,0,0.8,0c0.2,0,0.4,0,0.5,0.1c0.1,0,0.2,0.1,0.2,0.2
	c0.1,0.1,0.1,0.2,0.1,0.3l4.5,12.7l0.1,0.2l0.1-0.2l4.4-12.7c0-0.1,0.1-0.2,0.1-0.3c0.1-0.1,0.1-0.1,0.3-0.2c0.1,0,0.3-0.1,0.5-0.1
	c0.2,0,0.4,0,0.8,0c0.3,0,0.5,0,0.7,0C314.6,17.4,314.7,17.5,314.8,17.5z M331.5,24.4c0-1-0.1-1.9-0.4-2.8c-0.3-0.9-0.7-1.7-1.2-2.3
	c-0.6-0.7-1.3-1.2-2.2-1.6c-0.9-0.4-1.9-0.6-3.2-0.6c-1.2,0-2.2,0.2-3.1,0.6c-0.9,0.4-1.7,1-2.4,1.7c-0.7,0.7-1.2,1.6-1.5,2.7
	c-0.4,1.1-0.5,2.2-0.5,3.6c0,1.4,0.2,2.6,0.5,3.7c0.3,1,0.8,1.9,1.5,2.6c0.7,0.7,1.5,1.2,2.5,1.6c1,0.4,2.1,0.5,3.4,0.5
	c0.7,0,1.5-0.1,2.1-0.2c0.7-0.1,1.2-0.2,1.7-0.4c0.5-0.1,0.9-0.3,1.2-0.4c0.3-0.1,0.5-0.2,0.6-0.3c0.1-0.1,0.1-0.1,0.2-0.2
	c0-0.1,0.1-0.1,0.1-0.2c0-0.1,0-0.2,0-0.3c0-0.1,0-0.2,0-0.4c0-0.2,0-0.4,0-0.5c0-0.1,0-0.3-0.1-0.3c0-0.1-0.1-0.1-0.1-0.2
	c-0.1,0-0.1-0.1-0.2-0.1c-0.1,0-0.4,0.1-0.6,0.2c-0.3,0.1-0.6,0.3-1.1,0.4c-0.4,0.1-0.9,0.3-1.5,0.4c-0.6,0.1-1.3,0.2-2,0.2
	c-1,0-1.8-0.1-2.4-0.4c-0.7-0.3-1.2-0.6-1.6-1.1c-0.4-0.5-0.7-1.1-0.9-1.8c-0.2-0.7-0.3-1.5-0.3-2.3h10.4c0.3,0,0.6-0.1,0.8-0.3
	c0.2-0.2,0.3-0.5,0.3-0.9V24.4z M320,24.1c0-0.6,0.1-1.2,0.3-1.8c0.2-0.6,0.5-1.1,0.9-1.5c0.4-0.4,0.8-0.8,1.4-1
	c0.5-0.3,1.2-0.4,1.9-0.4c1.4,0,2.5,0.4,3.2,1.3c0.7,0.8,1.1,2,1,3.5H320z" fill="#343434"/>
<path id="t3" d="M90.6,57.3l0.3,1.9h0l0.3-1.9l2.3-7.5H94l2.3,7.5l0.3,1.9h0l0.3-1.9l1.9-7.5h1.3L97,61.2h-0.7L94,53.7
	L93.7,52h-0.1l-0.3,1.7l-2.3,7.5h-0.7l-3.2-11.4h1.4L90.6,57.3z M104.6,49.8h6.1V51h-4.8v3.7h4.4v1.2h-4.4v4h4.8V61h-6.2V49.8z
	 M122.9,52.4c0,0.3,0,0.5-0.1,0.8c-0.1,0.3-0.2,0.5-0.4,0.8c-0.2,0.2-0.4,0.4-0.7,0.6c-0.3,0.2-0.6,0.3-0.9,0.4v0.1
	c0.3,0.1,0.6,0.1,0.9,0.3c0.3,0.1,0.6,0.3,0.8,0.5s0.4,0.5,0.5,0.8s0.2,0.7,0.2,1.1c0,0.6-0.1,1.1-0.4,1.5c-0.2,0.4-0.5,0.8-0.9,1
	c-0.4,0.3-0.8,0.5-1.3,0.6c-0.5,0.1-1,0.2-1.5,0.2c-0.2,0-0.4,0-0.6,0s-0.5,0-0.8,0c-0.3,0-0.5,0-0.8-0.1c-0.3,0-0.5-0.1-0.7-0.1
	v-11c0.4-0.1,0.9-0.1,1.4-0.2c0.5,0,1.1-0.1,1.7-0.1c0.4,0,0.8,0,1.3,0.1c0.4,0.1,0.8,0.2,1.2,0.4c0.4,0.2,0.6,0.5,0.9,0.8
	C122.8,51.4,122.9,51.8,122.9,52.4z M119.2,60c0.3,0,0.7,0,1-0.1c0.3-0.1,0.6-0.2,0.8-0.4c0.2-0.2,0.4-0.4,0.6-0.7
	c0.1-0.3,0.2-0.6,0.2-0.9c0-0.4-0.1-0.8-0.3-1.1c-0.2-0.3-0.4-0.5-0.7-0.6c-0.3-0.1-0.6-0.3-0.9-0.3c-0.4-0.1-0.7-0.1-1.1-0.1h-1.4
	v4c0.1,0,0.2,0,0.3,0s0.3,0,0.4,0c0.2,0,0.3,0,0.5,0C119,60,119.1,60,119.2,60z M118.3,54.7c0.2,0,0.4,0,0.7,0c0.3,0,0.5,0,0.6,0
	c0.3-0.1,0.5-0.2,0.7-0.3c0.2-0.1,0.4-0.3,0.6-0.4c0.2-0.2,0.3-0.4,0.4-0.6c0.1-0.2,0.2-0.5,0.2-0.7c0-0.4-0.1-0.6-0.2-0.9
	c-0.1-0.2-0.3-0.4-0.5-0.6c-0.2-0.1-0.5-0.2-0.8-0.3c-0.3-0.1-0.6-0.1-0.9-0.1c-0.4,0-0.7,0-1,0c-0.3,0-0.5,0-0.7,0.1v3.8H118.3z" fill="#343434">
		<animate 
			id="anim3" 
			attributeType="xml"
			attributeName="fill-opacity" 
			begin="0s;anim1.end + 5s" 
			values="0;1;1;1" 
			dur="1s"             
		/>
	</path>
<path id="t2" d="M150.3,49.9c0.4-0.1,0.8-0.2,1.3-0.2c0.5,0,0.9,0,1.4,0c0.5,0,1,0,1.5,0.1c0.5,0.1,1,0.3,1.4,0.5
	s0.8,0.6,1,1.1c0.3,0.4,0.4,1,0.4,1.7c0,0.7-0.1,1.3-0.4,1.7c-0.2,0.5-0.6,0.9-1,1.2c-0.4,0.3-0.9,0.5-1.4,0.6
	c-0.5,0.1-1.1,0.2-1.6,0.2c-0.1,0-0.1,0-0.3,0c-0.1,0-0.2,0-0.4,0c-0.1,0-0.3,0-0.4,0c-0.1,0-0.2,0-0.3,0V61h-1.3V49.9z M153.1,50.8
	c-0.3,0-0.5,0-0.8,0s-0.5,0-0.6,0.1v4.6c0.1,0,0.1,0,0.3,0c0.1,0,0.2,0,0.4,0c0.1,0,0.2,0,0.4,0c0.1,0,0.2,0,0.3,0
	c0.4,0,0.7,0,1.1-0.1c0.4-0.1,0.7-0.2,1-0.4c0.3-0.2,0.5-0.4,0.7-0.8c0.2-0.3,0.3-0.8,0.3-1.3c0-0.4-0.1-0.8-0.3-1.1
	c-0.2-0.3-0.4-0.5-0.7-0.7c-0.3-0.2-0.6-0.3-0.9-0.4C153.7,50.9,153.4,50.8,153.1,50.8z M162.3,49.9c0.4-0.1,0.9-0.1,1.4-0.2
	c0.5,0,1-0.1,1.5-0.1c0.5,0,1,0.1,1.4,0.2c0.4,0.1,0.8,0.3,1.2,0.5c0.3,0.2,0.6,0.6,0.8,1c0.2,0.4,0.3,0.9,0.3,1.4
	c0,0.9-0.2,1.6-0.7,2.1c-0.5,0.5-1.1,0.9-1.8,1.1l0.8,0.6l2.8,4.4h-1.6l-3.1-4.8l-1.6-0.2V61h-1.3V49.9z M165.1,50.8
	c-0.1,0-0.3,0-0.4,0c-0.1,0-0.3,0-0.4,0c-0.1,0-0.3,0-0.4,0c-0.1,0-0.2,0-0.3,0V55h1.2c0.7,0,1.3-0.2,1.8-0.5
	c0.5-0.4,0.7-0.9,0.7-1.7c0-0.6-0.2-1.1-0.6-1.4C166.4,51,165.9,50.8,165.1,50.8z M175.1,49.8h1.3V61h-1.3V49.8z M184.5,53.7
	l-0.9-1.6h-0.1l0.2,1.6V61h-1.2V49.6h0.7l5.4,7.5l0.8,1.5h0.1l-0.2-1.5v-7.3h1.2v11.4h-0.7L184.5,53.7z M203.4,51h-3.5v10h-1.3V51
	h-3.5v-1.2h8.3V51z" fill="#343434">
		<animate 
			id="anim2" 
			attributeType="xml"
			attributeName="fill-opacity" 
			begin="anim3.begin + 2s" 
			values="0;1;1;1" 
			dur="1s"
		/>
	</path>
<path id="t1" d="M234,57.9h-4.1l-1.1,3.1h-1.3l4.2-11.4h0.6l4.3,11.4h-1.4L234,57.9z M230.4,56.7h3.3l-1.2-3.4l-0.4-1.7
	h0l-0.4,1.7L230.4,56.7z M243.1,53.7l-0.9-1.6h-0.1l0.2,1.6V61h-1.2V49.6h0.7l5.4,7.5l0.8,1.5h0.1l-0.2-1.5v-7.3h1.2v11.4h-0.7
	L243.1,53.7z M255.1,49.8h1.3V61h-1.3V49.8z M271.1,53.5l0.2-1.7h-0.1l-0.6,1.5l-2.9,5.1h-0.4l-3.1-5.1l-0.6-1.5h-0.1l0.2,1.7V61
	h-1.2V49.8h1l3.5,5.7l0.5,1.2h0l0.5-1.3l3.3-5.7h1V61h-1.3V53.5z M283.5,57.9h-4.1l-1.1,3.1h-1.3l4.2-11.4h0.6L286,61h-1.4
	L283.5,57.9z M279.8,56.7h3.3l-1.2-3.4l-0.4-1.7h0l-0.4,1.7L279.8,56.7z M296.7,51h-3.5v10h-1.3V51h-3.5v-1.2h8.3V51z M301.6,49.8
	h1.3V61h-1.3V49.8z M308.5,55.4c0-1.9,0.4-3.3,1.2-4.3c0.8-1,1.9-1.5,3.4-1.5c0.8,0,1.5,0.1,2,0.4c0.6,0.3,1.1,0.7,1.4,1.2
	c0.4,0.5,0.7,1.1,0.8,1.8c0.2,0.7,0.3,1.5,0.3,2.4c0,1.9-0.4,3.3-1.2,4.3c-0.8,1-1.9,1.5-3.4,1.5c-0.8,0-1.5-0.1-2-0.4
	c-0.6-0.3-1-0.7-1.4-1.2c-0.4-0.5-0.6-1.1-0.8-1.8C308.6,57.1,308.5,56.3,308.5,55.4z M309.9,55.4c0,0.6,0.1,1.2,0.2,1.8
	c0.1,0.6,0.3,1,0.6,1.5c0.3,0.4,0.6,0.8,1,1c0.4,0.2,0.9,0.4,1.4,0.4c1,0,1.8-0.4,2.3-1.1c0.6-0.8,0.8-1.9,0.8-3.5
	c0-0.6-0.1-1.2-0.2-1.7c-0.1-0.6-0.3-1.1-0.6-1.5c-0.3-0.4-0.6-0.8-1-1c-0.4-0.3-0.9-0.4-1.4-0.4c-1,0-1.8,0.4-2.3,1.1
	C310.2,52.7,309.9,53.8,309.9,55.4z M324.9,53.7l-0.9-1.6H324l0.2,1.6V61h-1.2V49.6h0.7l5.4,7.5l0.8,1.5h0.1l-0.2-1.5v-7.3h1.2v11.4
	h-0.7L324.9,53.7z" fill="#343434">
		<animate 
			id="anim1" 
			attributeType="xml"
			attributeName="fill-opacity" 
			begin="anim2.begin + 2s" 
			values="0;1;1;1"
			dur="1s"
        />
	</path>
<path id="pt2" fill-rule="evenodd" clip-rule="evenodd" class="st0" d="M137,53c1.7,0,3,1.3,3,3c0,1.7-1.3,3-3,3
	c-1.7,0-3-1.3-3-3C134,54.3,135.3,53,137,53z" fill="#F11B5D"/>
<path id="pt1" fill-rule="evenodd" clip-rule="evenodd" class="st0" d="M215,53c1.7,0,3,1.3,3,3c0,1.7-1.3,3-3,3s-3-1.3-3-3C212,54.3,213.3,53,215,53z" fill="#F11B5D"/>
</svg>
