<svg width="306" height="50" version="1.1" xmlns="http://www.w3.org/2000/svg" xmlns:xlink="http://www.w3.org/1999/xlink" x="0px" y="0px"
	 viewBox="0 0 306 50" style="enable-background:new 0 0 306 50;" xml:space="preserve">
<style type="text/css">
	.st0{fill:#424242;}
	.st1{fill:#F9AE00;}
	.st2{fill:#00AB97;}
</style>
<path class="st0" d="M77.7,8.4l-8.6,9.1l-8.6-9.1h-2.2v21.1h5.5v-5.8l-0.1-4.6l5.2,5.4h0.4l5.3-5.4l-0.1,4.6v5.8h5.5V8.4H77.7z
	 M94.3,29.7c6.4,0,11-4.5,11-10.8s-4.6-10.8-11-10.8c-6.4,0-11,4.5-11,10.8S87.9,29.7,94.3,29.7z M94.3,24.5c-3.2,0-5.4-2.2-5.4-5.6
	c0-3.4,2.2-5.6,5.4-5.6s5.4,2.2,5.4,5.6S97.6,24.5,94.3,24.5z M121.5,8.4V15l0.1,3.7L110.9,8.3h-2.2v21.1h5.4v-6.9l-0.1-3.8
	l10.6,10.7h2.2V8.4H121.5z M139,29.7c5.1,0,8.6-2.6,8.6-6.5c0-3.8-2.3-6.1-8.4-6.8c-2.4-0.2-3.2-0.8-3.2-1.8c0-1.1,1-1.8,2.8-1.8
	c1.8,0,2.9,0.8,2.9,2.1h5.3c0-4.1-3.3-6.9-8.2-6.9s-8.2,2.6-8.2,6.4c0,3.5,2,6.1,7.7,6.8c2.5,0.3,3.8,0.7,3.8,1.9
	c0,1.2-1.1,1.9-3.1,1.9c-2.1,0-3.2-0.8-3.2-2.3h-5.4C130.3,27.1,133.6,29.7,139,29.7z M150.9,29.4h5.5v-21h-5.5V29.4z M174.8,8.4
	h-15.6v4.9h5.1v16.1h5.5V13.3h5.1V8.4z M183,24.5v-3.3h7.1v-4.8H183v-3.1h7.6V8.4h-13.1v21h13.4v-4.9H183z"/>
<path class="st1" d="M202.3,29.7c5.1,0,8.6-2.6,8.6-6.5c0-3.8-2.3-6.1-8.4-6.8c-2.4-0.2-3.2-0.8-3.2-1.8c0-1.1,1-1.8,2.8-1.8
	c1.8,0,2.9,0.8,2.9,2.1h5.3c0-4.1-3.3-6.9-8.2-6.9s-8.2,2.6-8.2,6.4c0,3.5,2,6.1,7.7,6.8c2.5,0.3,3.8,0.7,3.8,1.9
	c0,1.2-1.1,1.9-3.1,1.9c-2.1,0-3.2-0.8-3.2-2.3h-5.4C193.7,27.1,196.9,29.7,202.3,29.7z"/>
<path class="st1" d="M219.7,24.5v-3.3h7.1v-4.8h-7.1v-3.1h7.6V8.4h-13.1v21h13.4v-4.9H219.7z"/>
<path class="st2" d="M240.9,29.7c5.7,0,9.4-3.3,10.4-8.3h-5.4c-0.8,1.9-2.5,3.1-4.7,3.1c-3.1,0-5.2-2.2-5.2-5.6
	c0-3.4,2.1-5.6,5.2-5.6c2.1,0,3.7,1,4.6,2.7h5.5c-1.1-4.8-4.7-7.9-10.2-7.9c-6.2,0-10.6,4.5-10.6,10.8S234.7,29.7,240.9,29.7z"/>
<path class="st2" d="M267.8,21.8c2.1-1.2,3.4-3.4,3.4-5.9c0-4.4-3.3-7.4-8-7.4h-8.9v21h5.5v-6.5h2.9l3.5,6.5h6.1v-0.1L267.8,21.8z
	 M259.8,13.2h3.2c1.7,0,2.7,1,2.7,2.6c0,1.6-1,2.6-2.7,2.6h-3.2V13.2z"/>
<path class="st2" d="M288.2,2.4V2.1l-4.1-1.8l-4.3,5.9v0.2h3.9L288.2,2.4z M280.9,24.5v-3.3h7v-4.8h-7v-3.1h7.6V8.4h-13.1v21h13.4
	v-4.9H280.9z"/>
<path class="st2" d="M298,24.5v-3.3h7v-4.8h-7v-3.1h7.6V8.4h-13.1v21h13.4v-4.9H298z"/>
<path class="st0" d="M43.2,12.7c-0.1-0.2-0.2-0.3-0.3-0.5c-0.1-0.1-0.1-0.2-0.2-0.2c0,0-0.1-0.1-0.1-0.1c0,0-0.1-0.1-0.1-0.1
	c0,0,0,0,0,0c-0.1-0.1-0.1-0.2-0.2-0.2c0,0,0,0,0,0c0,0-0.1-0.1-0.1-0.1c0,0,0,0,0-0.1C42.1,11.1,42,11,42,11c0,0,0,0,0,0
	c-0.1-0.2-0.3-0.3-0.4-0.5c0,0,0,0,0-0.1c-0.1-0.1-0.2-0.3-0.4-0.4c0,0,0,0,0-0.1c0-0.1-0.1-0.1-0.1-0.2c0,0-0.1-0.1-0.1-0.1
	c0,0-0.1-0.1-0.1-0.1c0,0-0.1-0.1-0.1-0.1c-0.1-0.1-0.3-0.3-0.4-0.4c-0.9-0.9-1.8-1.7-2.8-2.4c-1.5-1.1-3.1-2-4.8-2.7
	c-0.9-0.4-1.9-0.7-2.9-1C23.5,1.2,17.2,2,11.8,5.2C9.9,6.2,8.3,7.5,6.8,8.9c-1.1,1.1-2.2,2.4-3,3.8l4.1,2.4c0.9-1.3,2-2.6,3.2-3.7
	c0.9-0.8,1.9-1.5,3-2.1c4-2.3,8.5-3,12.7-2.2l-16.4,9.5l4.8,2.8L32.7,9.2c1.1,0.6,2.2,1.4,3.1,2.2l-17.1,9.9l4.8,2.8L43.2,12.7z"/>
<path class="st1" d="M2.5,14.9c-0.7,1.4-1.3,2.9-1.7,4.5c-0.4,1.3-0.6,2.6-0.7,4c0,0.4-0.1,0.8-0.1,1.1c0,0.1,0,0.1,0,0.2
	c0,0.3,0,0.5,0,0.8c0,0.1,0,0.2,0,0.3c0,0.1,0,0.2,0,0.2c0,0.1,0,0.1,0,0.2c0,0.1,0,0.1,0,0.2c0,0,0,0.1,0,0.1c0,0,0,0.1,0,0.1
	c0,0.1,0,0.2,0,0.3c0,0.1,0,0.2,0,0.2c0,0.1,0,0.2,0,0.2c0,0.1,0,0.2,0,0.3c0,0.2,0,0.4,0.1,0.7c0,0.1,0,0.1,0,0.2c0,0,0,0.1,0,0.1
	c0,0.1,0,0.1,0,0.2l17.2,9.9v4.3c-0.1,0-0.2-0.1-0.3-0.1c0,0,0,0,0,0c-0.1,0-0.2-0.1-0.3-0.1c0,0,0,0,0,0c0,0-0.1,0-0.1,0
	c-0.1,0-0.1-0.1-0.2-0.1c0,0,0,0,0,0c-0.1,0-0.2-0.1-0.3-0.1c0,0-0.1,0-0.1,0c-0.1,0-0.2-0.1-0.3-0.1c-0.2-0.1-0.3-0.2-0.5-0.2
	c-0.1-0.1-0.3-0.1-0.4-0.2c0,0,0,0,0,0c-0.1,0-0.1-0.1-0.2-0.1c-0.1,0-0.2-0.1-0.3-0.1c-0.1-0.1-0.2-0.1-0.3-0.2
	c-0.1-0.1-0.2-0.1-0.3-0.2c0,0,0,0,0,0c-0.1-0.1-0.2-0.1-0.2-0.2c-0.1-0.1-0.2-0.1-0.3-0.2c-0.1-0.1-0.2-0.1-0.3-0.2c0,0,0,0,0,0
	c-0.1-0.1-0.2-0.1-0.3-0.2c-0.1-0.1-0.2-0.1-0.3-0.2c-0.1-0.1-0.2-0.1-0.2-0.2c0,0-0.1-0.1-0.1-0.1c-0.1-0.1-0.2-0.1-0.2-0.2
	c-0.1-0.1-0.2-0.1-0.3-0.2c-0.1-0.1-0.1-0.1-0.2-0.2c0,0,0,0,0,0c0,0-0.1,0-0.1-0.1c0,0-0.1-0.1-0.1-0.1l-9.5-5.5
	c0,0.1,0.1,0.2,0.1,0.3c0,0.1,0.1,0.2,0.1,0.2c0,0,0,0.1,0,0.1c0,0.1,0.1,0.1,0.1,0.2c0,0,0,0,0,0C2,35,2,35.1,2.1,35.2
	c0,0.1,0.1,0.2,0.1,0.3c0,0.1,0.1,0.2,0.1,0.2c0,0.1,0.1,0.1,0.1,0.2c0,0.1,0.1,0.1,0.1,0.2c0,0.1,0.1,0.1,0.1,0.2
	c0,0.1,0.1,0.2,0.1,0.2c0.2,0.3,0.3,0.6,0.5,0.9c0.1,0.1,0.1,0.2,0.2,0.3c0.1,0.1,0.1,0.2,0.2,0.3c0.3,0.5,0.6,0.9,0.9,1.4
	c0,0.1,0.1,0.1,0.1,0.2c0,0,0,0,0,0c0.1,0.1,0.1,0.2,0.2,0.2C4.9,39.9,5,40,5,40.1c0.1,0.1,0.2,0.2,0.2,0.3c0.1,0.1,0.1,0.1,0.2,0.2
	c0,0,0.1,0.1,0.1,0.1c0,0.1,0.1,0.1,0.1,0.2c0,0.1,0.1,0.1,0.2,0.2C5.9,41.1,6,41.2,6,41.2c0.3,0.3,0.6,0.6,0.9,0.9
	c3,3,6.6,5.1,10.6,6.1c1.5,0.4,3.1,0.7,4.8,0.7V36.2L4.8,26.1c0-0.2,0-0.4,0-0.6c0-1.2,0.1-2.5,0.4-3.7l16.1,9.3l1,0.6v-5.5
	L2.5,14.9z"/>
<path class="st2" d="M46.2,19.4c-0.4-1.6-1-3.1-1.7-4.5L24.8,26.2l0,22.8c1.6-0.1,3.2-0.3,4.8-0.7c4-1,7.6-3.1,10.6-6.1
	c1.1-1.1,2.2-2.4,3-3.7L39,36c-2.3,3.3-5.6,5.9-9.5,7.2V29l12.4-7.1c0.2,1.2,0.4,2.4,0.4,3.7c0,2.2-0.4,4.3-1.1,6.3l4.2,2.4
	c1.1-2.7,1.6-5.7,1.6-8.7C47,23.4,46.7,21.4,46.2,19.4z"/>
<path class="st0" d="M60,34.6v2.7c0,0.3,0,0.6,0,0.9c0,0.3,0,0.5,0,0.7H60c0.2-0.4,0.5-0.6,0.9-0.9c0.4-0.2,0.9-0.4,1.5-0.4
	c1,0,1.7,0.4,2.3,1.1c0.6,0.7,0.9,1.7,0.9,3.1c0,0.9-0.1,1.7-0.4,2.3c-0.3,0.6-0.6,1.1-1.1,1.4c-0.5,0.3-1.1,0.5-1.7,0.5
	c-0.6,0-1.1-0.1-1.5-0.3c-0.4-0.2-0.7-0.5-0.9-0.8h-0.1l-0.3,1h-1.3V34.6H60z M61.9,39.1c-0.5,0-0.9,0.1-1.2,0.3
	c-0.3,0.2-0.5,0.5-0.6,0.9C60,40.7,60,41.2,60,41.8v0.2c0,0.9,0.1,1.6,0.4,2.1c0.3,0.5,0.8,0.7,1.6,0.7c0.6,0,1.1-0.2,1.4-0.7
	c0.3-0.5,0.5-1.2,0.5-2.1c0-0.9-0.2-1.6-0.5-2.1C63,39.4,62.5,39.1,61.9,39.1z M67.1,37.9H69l1.7,4.6c0.1,0.2,0.1,0.4,0.2,0.6
	c0.1,0.2,0.1,0.4,0.2,0.6c0,0.2,0.1,0.4,0.1,0.6h0c0-0.3,0.1-0.5,0.2-0.8c0.1-0.3,0.2-0.6,0.3-1l1.6-4.6h1.9l-3.5,9.2
	c-0.2,0.5-0.4,1-0.7,1.3c-0.3,0.4-0.6,0.7-1,0.8c-0.4,0.2-0.8,0.3-1.4,0.3c-0.2,0-0.5,0-0.6,0c-0.2,0-0.3-0.1-0.5-0.1v-1.4
	c0.1,0,0.2,0,0.4,0.1c0.2,0,0.3,0,0.5,0c0.3,0,0.6-0.1,0.8-0.2s0.4-0.3,0.6-0.5c0.2-0.2,0.3-0.5,0.4-0.8l0.3-0.8L67.1,37.9z
	 M84.5,46.1c-1,0-1.7-0.4-2.3-1.1c-0.6-0.7-0.9-1.8-0.9-3.1c0-1.4,0.3-2.4,0.9-3.2c0.6-0.7,1.4-1.1,2.4-1.1c0.4,0,0.8,0.1,1.1,0.2
	c0.3,0.1,0.6,0.3,0.8,0.4c0.2,0.2,0.4,0.4,0.6,0.6H87c0-0.2-0.1-0.4-0.1-0.7c0-0.3,0-0.6,0-0.8v-2.9h1.7V46h-1.3L87,44.9h-0.1
	c-0.1,0.2-0.3,0.4-0.6,0.6c-0.2,0.2-0.5,0.3-0.8,0.4C85.2,46.1,84.9,46.1,84.5,46.1z M85,44.7c0.7,0,1.3-0.2,1.6-0.6
	c0.3-0.4,0.5-1.1,0.5-1.9V42c0-0.9-0.1-1.6-0.4-2.1c-0.3-0.5-0.8-0.7-1.6-0.7c-0.6,0-1.1,0.3-1.4,0.8C83.2,40.4,83,41.1,83,42
	c0,0.9,0.2,1.6,0.5,2.1C83.8,44.5,84.3,44.7,85,44.7z M90.6,37.9h1.9l1.7,4.6c0.1,0.2,0.1,0.4,0.2,0.6c0.1,0.2,0.1,0.4,0.2,0.6
	c0,0.2,0.1,0.4,0.1,0.6h0c0-0.3,0.1-0.5,0.2-0.8c0.1-0.3,0.2-0.6,0.3-1l1.6-4.6h1.9l-3.5,9.2c-0.2,0.5-0.4,1-0.7,1.3
	c-0.3,0.4-0.6,0.7-1,0.8c-0.4,0.2-0.8,0.3-1.4,0.3c-0.2,0-0.5,0-0.6,0c-0.2,0-0.3-0.1-0.5-0.1v-1.4c0.1,0,0.2,0,0.4,0.1
	c0.2,0,0.3,0,0.5,0c0.3,0,0.6-0.1,0.8-0.2c0.2-0.1,0.4-0.3,0.6-0.5c0.2-0.2,0.3-0.5,0.4-0.8l0.3-0.8L90.6,37.9z M104.8,37.7
	c0.9,0,1.6,0.2,2.1,0.7c0.5,0.5,0.8,1.2,0.8,2.3V46H106v-5c0-0.6-0.1-1.1-0.4-1.4c-0.3-0.3-0.7-0.5-1.2-0.5c-0.8,0-1.3,0.2-1.6,0.7
	c-0.3,0.5-0.5,1.2-0.5,2.1v4h-1.7v-8.1h1.3l0.2,1.1h0.1c0.2-0.3,0.4-0.5,0.7-0.7c0.3-0.2,0.6-0.3,0.9-0.4
	C104.2,37.8,104.5,37.7,104.8,37.7z M114.1,37.7c1,0,1.8,0.2,2.3,0.7c0.5,0.5,0.8,1.2,0.8,2.1V46H116l-0.3-1.1h-0.1
	c-0.2,0.3-0.5,0.5-0.7,0.7c-0.2,0.2-0.5,0.3-0.8,0.4c-0.3,0.1-0.7,0.1-1.2,0.1c-0.5,0-0.9-0.1-1.3-0.3c-0.4-0.2-0.7-0.5-0.9-0.8
	c-0.2-0.4-0.3-0.8-0.3-1.4c0-0.8,0.3-1.5,0.9-1.9c0.6-0.4,1.6-0.7,2.8-0.7l1.4-0.1v-0.4c0-0.6-0.1-1-0.4-1.2
	c-0.3-0.2-0.6-0.4-1.1-0.4c-0.4,0-0.8,0.1-1.2,0.2c-0.4,0.1-0.8,0.3-1.1,0.4l-0.6-1.2c0.4-0.2,0.8-0.4,1.3-0.5
	C113,37.8,113.5,37.7,114.1,37.7z M115.5,42.1l-1,0c-0.9,0-1.5,0.2-1.8,0.4c-0.3,0.3-0.5,0.6-0.5,1.1c0,0.4,0.1,0.7,0.4,0.9
	c0.2,0.2,0.6,0.3,0.9,0.3c0.6,0,1.1-0.2,1.5-0.5c0.4-0.3,0.6-0.8,0.6-1.5V42.1z M129.5,37.7c0.9,0,1.6,0.2,2.1,0.7
	c0.5,0.5,0.7,1.2,0.7,2.3V46h-1.7v-5c0-0.6-0.1-1.1-0.4-1.4c-0.2-0.3-0.6-0.5-1.1-0.5c-0.7,0-1.2,0.2-1.5,0.7
	c-0.3,0.4-0.4,1.1-0.4,1.9V46h-1.7v-5c0-0.4-0.1-0.8-0.2-1c-0.1-0.3-0.3-0.5-0.5-0.6c-0.2-0.1-0.5-0.2-0.8-0.2
	c-0.5,0-0.9,0.1-1.1,0.3c-0.3,0.2-0.5,0.5-0.6,1c-0.1,0.4-0.2,0.9-0.2,1.5V46h-1.7v-8.1h1.3l0.2,1.1h0.1c0.2-0.3,0.4-0.5,0.6-0.7
	c0.2-0.2,0.5-0.3,0.8-0.4c0.3-0.1,0.6-0.1,0.9-0.1c0.6,0,1.1,0.1,1.5,0.3c0.4,0.2,0.7,0.5,0.9,1h0.1c0.3-0.4,0.6-0.8,1.1-1
	C128.5,37.8,129,37.7,129.5,37.7z M137.1,37.9V46h-1.7v-8.1H137.1z M136.3,34.8c0.3,0,0.5,0.1,0.7,0.2c0.2,0.1,0.3,0.4,0.3,0.7
	c0,0.3-0.1,0.6-0.3,0.7c-0.2,0.1-0.4,0.2-0.7,0.2c-0.3,0-0.5-0.1-0.7-0.2c-0.2-0.1-0.3-0.4-0.3-0.7c0-0.3,0.1-0.6,0.3-0.7
	C135.8,34.9,136,34.8,136.3,34.8z M143.6,46.1c-0.8,0-1.4-0.1-2-0.4c-0.6-0.3-1-0.8-1.3-1.4c-0.3-0.6-0.5-1.4-0.5-2.3
	c0-1,0.2-1.8,0.5-2.4s0.8-1.1,1.4-1.4c0.6-0.3,1.3-0.4,2-0.4c0.5,0,0.9,0,1.3,0.1c0.4,0.1,0.7,0.2,1,0.3l-0.5,1.4
	c-0.3-0.1-0.6-0.2-0.9-0.3c-0.3-0.1-0.6-0.1-0.9-0.1c-0.5,0-0.9,0.1-1.2,0.3c-0.3,0.2-0.5,0.5-0.7,0.9c-0.2,0.4-0.2,0.9-0.2,1.5
	c0,0.6,0.1,1.1,0.2,1.5c0.2,0.4,0.4,0.7,0.7,0.9c0.3,0.2,0.7,0.3,1.1,0.3c0.4,0,0.8-0.1,1.2-0.2c0.4-0.1,0.7-0.2,1-0.4v1.5
	c-0.3,0.2-0.6,0.3-1,0.4C144.6,46.1,144.1,46.1,143.6,46.1z M156.5,46.1c-0.8,0-1.4-0.1-2-0.4c-0.6-0.3-1-0.8-1.3-1.4
	c-0.3-0.6-0.5-1.4-0.5-2.3c0-1,0.2-1.8,0.5-2.4c0.3-0.6,0.8-1.1,1.4-1.4c0.6-0.3,1.3-0.4,2-0.4c0.5,0,0.9,0,1.3,0.1
	c0.4,0.1,0.7,0.2,1,0.3l-0.5,1.4c-0.3-0.1-0.6-0.2-0.9-0.3c-0.3-0.1-0.6-0.1-0.9-0.1c-0.5,0-0.9,0.1-1.2,0.3
	c-0.3,0.2-0.5,0.5-0.7,0.9c-0.2,0.4-0.2,0.9-0.2,1.5c0,0.6,0.1,1.1,0.2,1.5c0.2,0.4,0.4,0.7,0.7,0.9c0.3,0.2,0.7,0.3,1.1,0.3
	c0.4,0,0.8-0.1,1.2-0.2c0.4-0.1,0.7-0.2,1-0.4v1.5c-0.3,0.2-0.6,0.3-1,0.4C157.4,46.1,157,46.1,156.5,46.1z M165.5,37.7
	c0.1,0,0.3,0,0.4,0c0.2,0,0.3,0,0.4,0.1l-0.2,1.6c-0.1,0-0.2-0.1-0.4-0.1c-0.1,0-0.3,0-0.4,0c-0.3,0-0.6,0.1-0.9,0.2
	c-0.3,0.1-0.5,0.2-0.7,0.5c-0.2,0.2-0.4,0.5-0.5,0.8c-0.1,0.3-0.2,0.7-0.2,1.1V46h-1.7v-8.1h1.3l0.2,1.4h0.1
	c0.2-0.3,0.4-0.6,0.6-0.8c0.2-0.2,0.5-0.4,0.8-0.6C164.8,37.8,165.2,37.7,165.5,37.7z M171.9,37.7c0.7,0,1.3,0.1,1.9,0.4
	c0.5,0.3,0.9,0.7,1.2,1.3c0.3,0.5,0.4,1.2,0.4,2v0.9h-5.4c0,0.8,0.2,1.4,0.6,1.8c0.4,0.4,1,0.6,1.7,0.6c0.5,0,1,0,1.4-0.1
	c0.4-0.1,0.8-0.3,1.3-0.4v1.4c-0.4,0.2-0.8,0.3-1.2,0.4c-0.4,0.1-0.9,0.1-1.5,0.1c-0.8,0-1.5-0.2-2.1-0.5c-0.6-0.3-1.1-0.8-1.4-1.4
	c-0.3-0.6-0.5-1.4-0.5-2.3c0-0.9,0.2-1.7,0.5-2.3c0.3-0.6,0.7-1.1,1.3-1.5C170.5,37.9,171.1,37.7,171.9,37.7z M171.9,39
	c-0.5,0-1,0.2-1.3,0.5c-0.3,0.4-0.5,0.9-0.6,1.5h3.7c0-0.4-0.1-0.8-0.2-1.1c-0.1-0.3-0.3-0.6-0.6-0.7C172.6,39.1,172.3,39,171.9,39z
	 M181.2,37.7c1,0,1.8,0.2,2.3,0.7c0.5,0.5,0.8,1.2,0.8,2.1V46h-1.2l-0.3-1.1h-0.1c-0.2,0.3-0.5,0.5-0.7,0.7
	c-0.2,0.2-0.5,0.3-0.9,0.4c-0.3,0.1-0.7,0.1-1.2,0.1c-0.5,0-0.9-0.1-1.3-0.3c-0.4-0.2-0.7-0.5-0.9-0.8c-0.2-0.4-0.3-0.8-0.3-1.4
	c0-0.8,0.3-1.5,0.9-1.9c0.6-0.4,1.6-0.7,2.8-0.7l1.4-0.1v-0.4c0-0.6-0.1-1-0.4-1.2c-0.3-0.2-0.6-0.4-1.1-0.4c-0.4,0-0.8,0.1-1.2,0.2
	c-0.4,0.1-0.8,0.3-1.1,0.4l-0.6-1.2c0.4-0.2,0.8-0.4,1.3-0.5C180.1,37.8,180.7,37.7,181.2,37.7z M182.6,42.1l-1,0
	c-0.9,0-1.5,0.2-1.8,0.4c-0.3,0.3-0.5,0.6-0.5,1.1c0,0.4,0.1,0.7,0.4,0.9c0.2,0.2,0.6,0.3,0.9,0.3c0.6,0,1.1-0.2,1.5-0.5
	c0.4-0.3,0.6-0.8,0.6-1.5V42.1z M190.5,44.8c0.2,0,0.4,0,0.7-0.1c0.2,0,0.4-0.1,0.6-0.2v1.3c-0.2,0.1-0.4,0.2-0.7,0.2
	c-0.3,0.1-0.6,0.1-0.9,0.1c-0.5,0-0.9-0.1-1.2-0.2c-0.4-0.2-0.7-0.4-0.9-0.8c-0.2-0.4-0.3-0.9-0.3-1.6v-4.4h-1.1v-0.8l1.2-0.6
	l0.6-1.7h1.1v1.8h2.3v1.3h-2.3v4.3c0,0.4,0.1,0.7,0.3,0.9C189.9,44.7,190.2,44.8,190.5,44.8z M195.9,37.9V46h-1.7v-8.1H195.9z
	 M195,34.8c0.3,0,0.5,0.1,0.7,0.2c0.2,0.1,0.3,0.4,0.3,0.7c0,0.3-0.1,0.6-0.3,0.7c-0.2,0.1-0.4,0.2-0.7,0.2c-0.3,0-0.5-0.1-0.7-0.2
	c-0.2-0.1-0.3-0.4-0.3-0.7c0-0.3,0.1-0.6,0.3-0.7C194.5,34.9,194.8,34.8,195,34.8z M201,46l-3.1-8.1h1.8l1.7,4.8
	c0.1,0.3,0.2,0.6,0.3,1c0.1,0.4,0.1,0.6,0.2,0.9h0.1c0-0.2,0.1-0.5,0.2-0.9c0.1-0.4,0.2-0.7,0.3-1l1.7-4.8h1.8l-3.1,8.1H201z
	 M211.1,37.7c0.7,0,1.3,0.1,1.9,0.4c0.5,0.3,0.9,0.7,1.2,1.3c0.3,0.5,0.4,1.2,0.4,2v0.9h-5.4c0,0.8,0.2,1.4,0.6,1.8
	c0.4,0.4,1,0.6,1.7,0.6c0.5,0,1,0,1.4-0.1c0.4-0.1,0.8-0.3,1.3-0.4v1.4c-0.4,0.2-0.8,0.3-1.2,0.4c-0.4,0.1-0.9,0.1-1.5,0.1
	c-0.8,0-1.5-0.2-2.1-0.5c-0.6-0.3-1.1-0.8-1.4-1.4c-0.3-0.6-0.5-1.4-0.5-2.3c0-0.9,0.2-1.7,0.5-2.3c0.3-0.6,0.7-1.1,1.3-1.5
	C209.7,37.9,210.4,37.7,211.1,37.7z M211.1,39c-0.5,0-1,0.2-1.3,0.5c-0.3,0.4-0.5,0.9-0.6,1.5h3.7c0-0.4-0.1-0.8-0.2-1.1
	c-0.1-0.3-0.3-0.6-0.6-0.7C211.8,39.1,211.5,39,211.1,39z"/>
</svg>
