<svg width="24" height="24" viewBox="0 0 24 24" fill="none" xmlns="http://www.w3.org/2000/svg">
<path fill-rule="evenodd" clip-rule="evenodd" d="M3.12399 11.9602C3.18922 11.7979 3.28263 11.5812 3.4076 11.3264C3.70159 10.7268 4.16422 9.92832 4.83569 9.13333C6.16676 7.55743 8.30632 6 11.6525 6C14.9987 6 17.1382 7.55743 18.4693 9.13333C19.1408 9.92832 19.6034 10.7268 19.8974 11.3264C20.0241 11.5847 20.1183 11.8039 20.1837 11.9668C20.1165 12.1261 20.0204 12.3393 19.892 12.5901C19.5917 13.1771 19.1216 13.9577 18.4456 14.7314C17.1056 16.265 14.9689 17.7668 11.6689 17.7129C8.34729 17.6585 6.19636 16.1447 4.85356 14.6349C4.17666 13.8739 3.70685 13.114 3.40738 12.5457C3.28397 12.3115 3.19044 12.1117 3.12399 11.9602ZM22.3032 11.9851L22.2065 11.6763L22.2061 11.6752L22.2053 11.6724L22.2029 11.6649L22.1955 11.6425C22.1895 11.6242 22.1812 11.5995 22.1704 11.5686C22.1489 11.5069 22.1177 11.4208 22.0761 11.3138C21.9929 11.0998 21.8674 10.8011 21.6932 10.4459C21.3458 9.73744 20.7988 8.79184 19.9972 7.8428C18.3821 5.93063 15.7217 4 11.6525 4C7.58331 4 4.92287 5.93063 3.30778 7.8428C2.50618 8.79184 1.95919 9.73744 1.61184 10.4459C1.43764 10.8011 1.31215 11.0998 1.22892 11.3138C1.18726 11.4208 1.15608 11.5069 1.13458 11.5686C1.12382 11.5995 1.11548 11.6242 1.10946 11.6425L1.10214 11.6649L1.09975 11.6724L1.09887 11.6752L1.09851 11.6763L1 11.9908L1.10726 12.3025L1.10766 12.3036L1.10861 12.3064L1.11117 12.3137L1.11893 12.3354C1.1253 12.353 1.13407 12.3768 1.14532 12.4063C1.16783 12.4654 1.20032 12.5477 1.24353 12.65C1.32987 12.8543 1.4594 13.1391 1.63802 13.4781C1.99431 14.1542 2.55143 15.056 3.35914 15.9641C4.98557 17.7927 7.63465 19.6472 11.6362 19.7126C15.6592 19.7784 18.3225 17.9119 19.9517 16.0473C20.7603 15.1219 21.3171 14.1958 21.6726 13.501C21.8508 13.1526 21.98 12.8592 22.066 12.649C22.109 12.5438 22.1413 12.4591 22.1636 12.3984C22.1748 12.368 22.1835 12.3436 22.1898 12.3257L22.1974 12.3035L22.1999 12.2961L22.2008 12.2934L22.2012 12.2923L22.3032 11.9851ZM11.6525 10.551C10.8534 10.551 10.2525 11.1744 10.2525 11.8863C10.2525 12.5982 10.8534 13.2217 11.6525 13.2217C12.4516 13.2217 13.0525 12.5982 13.0525 11.8863C13.0525 11.1744 12.4516 10.551 11.6525 10.551ZM8.25251 11.8863C8.25251 10.0187 9.80065 8.55095 11.6525 8.55095C13.5044 8.55095 15.0525 10.0187 15.0525 11.8863C15.0525 13.7539 13.5044 15.2217 11.6525 15.2217C9.80065 15.2217 8.25251 13.7539 8.25251 11.8863Z" fill="#424242" />
</svg>
